<?xml version="1.0" standalone="no"?>
<!DOCTYPE svg PUBLIC "-//W3C//DTD SVG 20010904//EN"
 "http://www.w3.org/TR/2001/REC-SVG-20010904/DTD/svg10.dtd">
<svg version="1.0" xmlns="http://www.w3.org/2000/svg"
 width="288.000000pt" height="288.000000pt" viewBox="0 0 288.000000 288.000000"
 preserveAspectRatio="xMidYMid meet">

<g transform="translate(0.000000,288.000000) scale(0.100000,-0.100000)"
fill="#000000" stroke="none">
<path d="M1310 2834 c-14 -2 -65 -11 -115 -20 -442 -76 -820 -365 -1020 -779
-87 -181 -129 -373 -129 -595 0 -364 126 -686 370 -949 273 -293 623 -445
1024 -445 161 0 262 14 405 56 317 94 607 318 782 603 145 236 207 456 207
735 0 364 -125 686 -370 949 -211 226 -466 367 -774 426 -83 16 -330 28 -380
19z m407 -44 c181 -38 331 -101 486 -204 86 -57 111 -77 192 -155 205 -198
334 -431 397 -719 31 -139 31 -405 0 -544 -61 -278 -172 -486 -366 -688 -191
-199 -429 -330 -714 -392 -139 -31 -405 -31 -544 0 -365 80 -657 275 -868 578
-99 142 -170 312 -212 502 -29 129 -31 394 -5 525 64 320 219 581 482 813 79
70 261 175 387 225 71 28 232 68 320 79 108 13 337 3 445 -20z"/>
<path d="M1245 2790 c-528 -87 -943 -440 -1103 -940 -50 -157 -65 -278 -59
-459 6 -172 26 -276 78 -420 137 -373 439 -675 809 -809 177 -65 245 -76 465
-76 172 0 213 3 294 22 315 74 570 232 770 477 149 182 246 401 286 644 33
199 10 459 -58 656 -154 445 -526 777 -993 886 -98 23 -396 35 -489 19z m414
-25 c460 -81 841 -381 1017 -803 75 -179 104 -323 104 -522 0 -201 -30 -351
-106 -529 -170 -399 -533 -695 -964 -788 -120 -26 -420 -26 -540 0 -171 37
-324 101 -465 194 -288 191 -487 473 -573 813 -25 97 -27 121 -27 310 0 182 3
216 24 300 55 222 163 429 305 589 198 221 459 373 731 425 44 8 89 17 100 19
51 11 317 6 394 -8z"/>
<path d="M1322 2722 c-36 -3 -41 -6 -32 -17 6 -8 14 -48 17 -89 l6 -76 43 0
c39 0 44 2 43 23 0 12 -3 16 -6 10 -2 -7 -16 -13 -29 -13 -21 0 -24 5 -24 35
0 28 4 35 20 35 11 0 20 5 20 10 0 6 -11 10 -25 10 -21 0 -25 5 -25 31 0 28 3
31 25 27 14 -3 25 -2 25 3 0 12 -11 14 -58 11z"/>
<path d="M1548 2645 c-3 -41 -11 -81 -18 -90 -10 -13 -9 -15 9 -15 11 0 24 0
27 0 3 0 8 32 10 72 5 74 13 96 33 84 16 -10 13 -56 -4 -62 -19 -8 -20 -24 -2
-24 22 0 47 34 47 63 0 30 -24 47 -68 47 l-29 0 -5 -75z"/>
<path d="M1200 2701 c0 -6 5 -13 10 -16 6 -3 10 -17 10 -31 0 -20 -5 -24 -31
-24 -28 0 -30 2 -27 33 3 29 1 32 -22 29 -31 -5 -38 -11 -22 -21 7 -4 18 -42
24 -84 11 -70 15 -77 35 -77 23 0 32 15 14 22 -5 2 -12 20 -16 41 -7 36 -6 37
23 37 24 0 31 -5 36 -26 4 -14 4 -35 0 -46 -5 -17 -3 -19 18 -13 12 4 24 8 24
9 1 0 -7 35 -17 76 -11 41 -17 80 -14 87 3 8 -5 13 -20 13 -14 0 -25 -4 -25
-9z"/>
<path d="M1683 2657 c-1 -24 -9 -63 -17 -87 -17 -50 -18 -47 9 -52 13 -2 20 3
20 17 3 46 5 55 14 55 5 0 12 -20 15 -45 5 -31 12 -45 23 -45 15 0 14 13 -3
72 -3 10 3 22 15 30 14 9 21 23 21 44 0 27 -5 34 -31 43 -56 19 -64 15 -66
-32z m65 -10 c2 -18 -2 -29 -13 -33 -23 -9 -28 0 -20 36 8 37 29 35 33 -3z"/>
<path d="M1017 2656 c-54 -20 -71 -42 -23 -30 19 4 24 -3 43 -62 12 -37 20
-71 17 -76 -6 -9 30 -11 39 -1 4 3 3 11 -2 17 -4 6 -16 36 -26 66 -10 30 -20
61 -23 68 -2 6 3 12 11 12 15 0 33 18 26 25 -2 1 -30 -7 -62 -19z"/>
<path d="M1824 2616 c-27 -27 -34 -42 -34 -72 0 -45 6 -56 37 -73 48 -25 104
24 111 98 4 42 1 50 -19 65 -35 24 -57 20 -95 -18z m89 -7 c16 -25 -18 -107
-50 -122 -19 -9 -26 -8 -34 4 -27 42 12 143 53 137 11 -2 26 -10 31 -19z"/>
<path d="M1993 2586 c6 -16 -60 -136 -75 -136 -5 0 -6 -4 -3 -10 12 -20 31 -9
43 23 6 18 18 42 27 52 13 18 13 16 4 -18 -6 -21 -9 -51 -7 -68 l3 -29 45 40
c25 21 40 39 33 40 -6 0 -19 -7 -28 -16 -9 -9 -17 -15 -19 -13 -2 2 1 33 6 68
8 51 7 65 -4 72 -20 13 -31 11 -25 -5z"/>
<path d="M771 2541 c-28 -15 -31 -20 -19 -27 20 -12 78 -106 78 -128 0 -18 21
-21 37 -5 8 8 6 16 -8 30 -10 10 -19 26 -19 34 0 16 10 13 55 -20 12 -8 26
-11 33 -6 10 6 4 14 -22 30 -27 17 -36 30 -36 49 -1 34 -22 62 -46 62 -10 -1
-34 -9 -53 -19z m63 -17 c9 -23 7 -54 -3 -54 -10 0 -41 45 -41 60 0 16 37 12
44 -6z"/>
<path d="M2091 2511 c-14 -10 -21 -23 -17 -30 7 -11 -28 -79 -48 -93 -7 -5 -6
-11 4 -18 19 -13 43 -13 35 0 -7 11 53 121 72 133 15 9 8 27 -10 27 -7 0 -23
-9 -36 -19z"/>
<path d="M1250 2475 c-369 -67 -685 -341 -809 -702 -50 -148 -64 -353 -36
-517 75 -431 421 -776 851 -851 569 -99 1110 276 1218 844 20 107 20 275 0
382 -82 431 -423 769 -850 844 -105 18 -272 18 -374 0z m381 -21 c304 -57 560
-245 718 -525 163 -290 162 -689 -3 -982 -127 -227 -336 -404 -570 -483 -208
-71 -466 -72 -671 -2 -277 95 -521 331 -631 609 -80 205 -85 490 -12 704 97
282 339 530 624 636 151 57 379 75 545 43z"/>
<path d="M1102 2034 c-32 -22 -28 -30 24 -43 54 -14 115 -44 160 -77 35 -27
52 -29 89 -12 30 14 32 24 5 33 -11 4 -20 15 -20 27 0 17 -4 19 -26 14 -23 -6
-25 -4 -19 15 7 20 5 21 -29 15 -29 -6 -36 -4 -36 9 0 18 -5 19 -31 5 -16 -9
-19 -7 -19 10 0 23 -4 24 -30 10 -13 -7 -21 -7 -25 0 -8 14 -17 13 -43 -6z"/>
<path d="M1026 2024 c-3 -9 -6 -26 -6 -39 0 -17 -7 -24 -30 -28 -45 -10 -36
-27 14 -27 48 0 71 17 56 40 -6 8 -10 27 -10 43 0 30 -14 36 -24 11z"/>
<path d="M1605 2003 c-51 -13 -104 -64 -137 -131 -18 -37 -36 -68 -40 -70 -25
-11 0 -22 55 -24 l62 -1 -64 -6 c-38 -4 -66 -11 -69 -18 -3 -10 18 -13 82 -13
46 0 88 -4 91 -10 4 -6 -27 -10 -84 -10 -84 0 -91 -2 -91 -20 0 -18 8 -20 118
-23 l117 -3 -117 -2 c-111 -2 -118 -3 -118 -22 0 -19 7 -20 140 -20 87 0 140
-4 140 -10 0 -6 -54 -10 -141 -10 -125 0 -140 -2 -137 -16 3 -15 22 -17 170
-15 108 2 168 -1 173 -8 4 -8 -46 -11 -162 -12 -282 -2 -280 -2 -330 26 l-46
25 -32 -37 c-18 -21 -36 -36 -39 -33 -3 3 30 51 72 105 89 115 122 160 122
169 0 15 -108 116 -123 116 -13 0 -17 -9 -17 -35 0 -42 -20 -55 -88 -55 -51 0
-64 -9 -87 -54 -6 -11 -28 -30 -50 -42 -70 -36 -70 -34 -68 -449 l2 -370 571
-3 570 -2 0 299 0 300 -26 20 c-14 11 -51 25 -82 32 -31 7 -61 16 -66 20 -16
14 47 22 96 12 51 -10 55 -8 35 18 -18 24 -67 46 -120 54 -26 4 -47 11 -47 15
0 12 71 22 124 19 57 -4 64 3 30 30 -36 28 -99 44 -156 39 -27 -3 -48 -1 -48
4 0 16 83 47 150 56 l65 9 -49 23 c-40 18 -59 21 -103 16 -30 -4 -68 -13 -83
-21 -38 -20 -43 -19 -30 5 13 24 73 56 123 65 48 9 47 20 -5 34 -55 15 -131 1
-199 -36 -27 -14 -52 -23 -56 -20 -3 4 14 27 39 52 l45 45 -31 -1 c-17 -1 -40
-4 -51 -6z m-633 -525 c3 -20 10 -23 56 -26 44 -3 52 -6 52 -23 0 -16 -7 -19
-55 -19 -48 0 -55 -2 -55 -20 0 -18 7 -20 55 -20 52 0 55 -1 55 -25 0 -23 -3
-25 -50 -25 -27 0 -50 -3 -50 -6 0 -4 15 -19 33 -35 33 -30 45 -32 167 -31
160 1 156 1 189 31 17 16 31 31 31 34 0 3 -21 7 -47 9 -41 3 -48 6 -51 26 -3
21 0 22 53 22 48 0 56 3 53 18 -2 13 -15 18 -56 20 -43 3 -52 6 -52 22 0 16 9
19 53 22 45 3 52 6 55 26 2 14 10 22 23 22 18 0 19 -8 19 -103 0 -91 -2 -106
-20 -122 -25 -22 -26 -37 -2 -33 15 3 17 -11 20 -149 2 -148 2 -153 -18 -153
-19 0 -20 6 -20 130 l0 130 -220 0 -220 0 0 -130 c0 -123 -1 -130 -20 -130
-19 0 -20 7 -20 150 0 148 2 156 33 151 14 -2 7 16 -13 34 -18 16 -20 31 -20
122 0 95 1 103 19 103 13 0 21 -8 23 -22z m552 6 c3 -9 6 -29 6 -45 0 -34 30
-98 56 -120 16 -13 17 -10 11 51 -3 36 -9 80 -13 98 -6 31 -5 34 17 30 28 -4
36 -30 38 -120 0 -32 5 -58 10 -58 18 0 49 55 63 115 10 40 21 61 32 63 22 5
22 -57 0 -121 -15 -45 -67 -107 -89 -107 -11 0 -39 -159 -30 -168 5 -6 29 18
42 43 6 11 14 39 18 63 5 32 11 42 26 42 49 0 -3 -167 -59 -188 -15 -6 -35
-13 -45 -16 -10 -3 -28 -29 -40 -56 -19 -45 -24 -50 -53 -50 l-31 0 30 59 c30
57 31 59 13 77 -28 28 -46 78 -46 129 0 37 3 45 19 45 15 0 19 -9 23 -55 4
-53 31 -101 49 -90 4 3 11 31 14 63 4 31 9 65 11 74 4 11 -5 22 -26 33 -38 20
-76 95 -86 173 -6 48 -5 52 14 52 11 0 23 -7 26 -16z m496 -6 c0 -22 -4 -23
-80 -24 -84 -2 -110 -12 -110 -45 0 -17 9 -19 95 -19 88 0 95 -1 95 -20 0 -19
-7 -20 -105 -20 l-105 0 0 -30 0 -30 105 0 c98 0 105 -1 105 -20 0 -17 -7 -20
-45 -20 -41 0 -45 -2 -45 -24 0 -14 15 -39 39 -63 43 -43 61 -92 61 -170 0
-47 -2 -53 -20 -53 -11 0 -23 7 -26 15 -5 12 -25 15 -90 15 l-84 0 0 109 c0
100 2 109 20 114 19 5 20 0 20 -83 0 -52 4 -92 11 -95 6 -4 12 -5 14 -4 2 2 5
56 6 119 l4 115 -36 3 -37 3 -11 -68 c-14 -84 -37 -156 -64 -205 -17 -32 -26
-38 -54 -38 -18 0 -33 5 -33 10 0 6 4 10 8 10 17 0 72 109 86 171 9 36 18 110
22 165 11 182 28 204 165 204 86 0 89 -1 89 -22z m-830 -10 c8 0 25 3 37 7 27
9 45 -21 22 -36 -12 -8 -12 -10 0 -18 23 -15 5 -45 -22 -36 -28 9 -46 9 -74 0
-27 -9 -45 21 -22 36 12 8 12 10 0 18 -23 15 -5 45 22 36 12 -4 29 -7 37 -7z
m-11 -117 c9 -6 24 -5 38 2 31 14 53 -4 33 -28 -12 -14 -11 -18 0 -25 11 -7
11 -11 1 -24 -10 -12 -17 -13 -38 -3 -19 8 -29 8 -45 -2 -17 -11 -23 -10 -37
3 -14 14 -14 18 -2 26 12 7 12 11 2 24 -24 28 13 49 48 27z m131 -185 c0 -8
-20 -34 -45 -57 -25 -23 -45 -46 -45 -51 0 -4 15 -8 34 -8 26 0 41 7 59 30 22
26 67 42 67 24 0 -4 -16 -27 -36 -50 -33 -41 -39 -44 -85 -44 l-49 0 0 -35 0
-35 -76 0 c-72 0 -75 1 -72 22 3 18 10 21 50 22 61 1 67 20 8 24 -38 2 -50 9
-82 44 -20 23 -35 45 -32 50 11 17 41 7 69 -22 19 -19 39 -30 57 -30 15 0 28
3 28 7 0 4 -20 26 -45 50 -72 67 -66 73 75 73 98 0 120 -3 120 -14z"/>
<path d="M1930 1070 c0 -57 1 -60 25 -60 21 0 25 5 25 30 0 34 -25 90 -40 90
-6 0 -10 -27 -10 -60z"/>
<path d="M1150 1134 c0 -3 7 -12 16 -21 13 -13 19 -14 40 -3 35 19 30 30 -16
30 -22 0 -40 -3 -40 -6z"/>
<path d="M1110 1960 c0 -5 7 -10 15 -10 8 0 15 5 15 10 0 6 -7 10 -15 10 -8 0
-15 -4 -15 -10z"/>
<path d="M1076 1926 c-5 -24 -2 -35 15 -48 26 -22 63 -23 83 -2 18 17 19 24
10 48 -9 23 -24 20 -24 -4 0 -13 -7 -20 -19 -20 -24 0 -37 17 -16 22 10 2 6 8
-14 19 l-29 17 -6 -32z"/>
<path d="M982 1900 c-66 -16 -95 -76 -54 -113 30 -28 49 -20 93 38 37 49 39
56 26 70 -17 16 -17 16 -65 5z"/>
<path d="M1302 1719 c-37 -47 -61 -87 -58 -95 7 -17 55 -39 109 -48 l37 -7 1
46 c2 171 1 180 -12 183 -8 1 -42 -34 -77 -79z"/>
<path d="M670 2468 c-31 -11 -40 -25 -40 -63 0 -31 21 -70 50 -92 24 -19 75
-16 95 7 49 54 -35 174 -105 148z m62 -45 c46 -51 48 -103 3 -103 -44 0 -106
96 -78 123 15 15 51 5 75 -20z"/>
<path d="M2131 2425 c-78 -90 4 -183 93 -105 67 59 54 140 -23 140 -32 0 -44
-6 -70 -35z m109 -14 c0 -50 -61 -108 -100 -96 -29 9 -25 45 11 88 22 27 38
37 60 37 25 0 29 -4 29 -29z"/>
<path d="M538 2362 c-31 -30 -35 -42 -15 -42 14 0 102 -88 108 -108 3 -10 8
-10 24 1 18 14 18 15 -11 40 -26 23 -28 28 -16 47 17 28 10 36 -12 14 -16 -15
-19 -15 -41 6 -24 23 -24 50 1 50 8 0 14 5 14 10 0 18 -24 9 -52 -18z"/>
<path d="M2307 2384 c-4 -4 0 -15 9 -25 16 -17 13 -22 -35 -69 -28 -27 -56
-50 -61 -50 -16 0 -12 -18 6 -28 12 -7 29 5 71 50 53 55 57 57 75 41 10 -9 21
-13 25 -9 4 4 -13 27 -38 52 -25 24 -48 42 -52 38z"/>
<path d="M2400 2267 c0 -12 -88 -86 -116 -97 -10 -4 -10 -9 1 -24 13 -17 17
-15 67 33 29 29 63 54 76 58 22 5 22 6 6 24 -20 22 -34 25 -34 6z"/>
<path d="M405 2211 c-3 -6 1 -18 9 -27 20 -20 39 -54 33 -60 -7 -7 -61 16 -69
29 -6 9 -11 8 -18 -3 -12 -19 -13 -43 -1 -36 16 10 113 -25 136 -50 l24 -25
11 21 c6 12 10 22 8 23 -41 21 -64 42 -92 85 -19 30 -37 49 -41 43z"/>
<path d="M2404 2180 c-58 -23 -83 -105 -42 -134 78 -55 209 65 140 127 -20 18
-64 21 -98 7z m85 -19 c33 -21 -17 -89 -75 -103 -50 -13 -71 33 -31 69 44 41
78 51 106 34z"/>
<path d="M312 2066 c-35 -59 -40 -105 -7 -59 11 15 16 14 60 -7 27 -13 57 -32
68 -43 18 -18 19 -18 32 0 20 25 18 33 -5 33 -11 0 -45 14 -75 31 -48 27 -54
34 -49 55 9 34 -1 30 -24 -10z"/>
<path d="M2550 2068 c0 -17 -125 -82 -139 -73 -14 8 -14 -5 -1 -25 7 -10 12
-12 18 -4 7 11 85 54 97 54 3 0 -13 -29 -36 -65 -23 -36 -38 -69 -35 -72 4 -4
36 7 72 25 35 18 73 32 85 32 17 0 18 3 8 21 -6 12 -14 18 -18 12 -9 -14 -83
-54 -89 -49 -2 3 10 27 27 54 31 49 39 86 21 97 -5 3 -10 0 -10 -7z"/>
<path d="M244 1925 c-16 -39 -18 -59 -5 -51 5 3 41 -8 81 -24 40 -17 74 -30
76 -30 7 0 34 60 34 75 0 8 -6 15 -14 15 -9 0 -12 -7 -9 -19 6 -25 -11 -34
-48 -26 -26 6 -30 10 -25 31 4 14 2 24 -4 24 -5 0 -10 -7 -10 -15 0 -17 -27
-20 -50 -5 -12 8 -13 13 -2 30 15 24 15 30 1 30 -5 0 -17 -16 -25 -35z"/>
<path d="M210 1826 c-13 -36 -13 -39 5 -33 17 7 110 -19 142 -39 20 -12 22
-12 28 7 8 25 15 21 -70 42 -38 10 -75 25 -82 34 -11 14 -14 13 -23 -11z"/>
<path d="M2573 1789 c-38 -11 -63 -43 -63 -80 0 -35 20 -50 75 -57 98 -11 156
91 75 133 -32 17 -41 17 -87 4z m91 -32 c44 -32 -16 -81 -90 -75 -34 3 -39 6
-39 28 0 44 89 76 129 47z"/>
<path d="M184 1735 c-15 -62 25 -107 97 -109 33 -1 46 5 66 28 24 28 28 66 8
73 -6 2 -11 -9 -10 -24 0 -41 -42 -59 -98 -41 -35 11 -43 18 -45 41 -2 19 3
33 15 43 17 13 17 13 -4 14 -16 0 -25 -8 -29 -25z"/>
<path d="M2697 1629 c-10 -6 -52 -13 -93 -16 -62 -5 -74 -9 -72 -22 3 -12 13
-15 46 -13 37 3 42 1 42 -17 0 -12 5 -21 10 -21 6 0 10 11 10 25 0 22 4 25 36
25 34 0 36 -2 30 -25 -4 -14 -2 -25 4 -25 5 0 10 23 10 50 0 28 -1 50 -2 50
-2 0 -11 -5 -21 -11z"/>
<path d="M193 1596 c-80 -36 -36 -136 60 -136 20 0 46 9 61 21 74 58 -29 156
-121 115z m92 -30 c62 -26 38 -76 -37 -76 -65 0 -104 54 -55 78 31 15 52 14
92 -2z"/>
<path d="M230 1410 c-33 -32 -70 -40 -70 -15 0 8 5 15 10 15 6 0 10 5 10 10 0
6 -7 10 -15 10 -10 0 -15 -10 -15 -28 0 -58 45 -69 92 -22 33 33 78 41 78 14
0 -9 -8 -23 -17 -31 -17 -12 -16 -13 7 -11 52 6 27 88 -26 88 -13 0 -37 -13
-54 -30z"/>
<path d="M2543 1404 c-3 -9 -2 -28 3 -43 14 -38 70 -42 104 -6 24 26 54 33 65
14 4 -6 -1 -17 -11 -25 -18 -14 -18 -15 1 -12 24 4 32 42 15 64 -19 22 -54 17
-80 -11 -28 -29 -80 -35 -80 -9 0 9 8 23 18 30 16 12 15 13 -6 14 -12 0 -25
-7 -29 -16z"/>
<path d="M2562 1295 c-27 -20 -44 -58 -36 -80 10 -24 22 -17 17 9 -4 18 2 29
21 41 60 40 173 -21 121 -65 -16 -13 -20 -30 -7 -30 16 0 29 16 36 42 15 64
-95 124 -152 83z"/>
<path d="M280 1224 c-30 -8 -67 -15 -82 -16 -20 -1 -28 -6 -28 -20 0 -10 5
-18 10 -18 6 0 10 4 10 8 0 9 100 35 107 28 2 -2 -19 -22 -47 -46 -34 -29 -50
-49 -50 -66 0 -13 5 -24 10 -24 6 0 10 4 10 9 0 11 128 44 141 36 18 -12 8
-25 -56 -76 -39 -31 -65 -58 -65 -70 0 -20 16 -26 22 -9 2 6 40 11 85 13 56 1
83 6 83 14 0 16 -17 26 -25 13 -12 -20 -43 -11 -47 14 -6 28 8 47 28 39 17 -6
17 -5 3 38 -6 19 -12 39 -14 46 -3 9 -11 9 -32 -1 -15 -8 -45 -17 -65 -20
l-38 -7 55 52 c30 29 55 58 55 65 0 16 2 16 -70 -2z m64 -219 c4 -11 -2 -15
-27 -15 -30 1 -31 1 -13 15 25 19 32 19 40 0z"/>
<path d="M2510 1155 c0 -15 4 -24 10 -20 13 8 150 -26 150 -37 0 -19 18 -5 22
17 5 21 2 25 -21 25 -25 0 -108 20 -143 35 -15 6 -18 2 -18 -20z"/>
<path d="M2481 1063 c-10 -37 -7 -58 9 -48 4 3 6 14 3 24 -6 25 8 32 46 25 30
-6 32 -9 26 -38 l-6 -31 19 24 c14 17 25 22 40 16 22 -6 31 -45 11 -45 -5 0
-7 -4 -4 -10 12 -19 22 -10 33 29 15 50 15 51 -6 51 -11 0 -45 9 -77 20 -78
27 -82 26 -94 -17z"/>
<path d="M2457 1003 c-14 -13 -6 -33 13 -33 24 0 90 -31 90 -42 0 -4 -20 -8
-44 -8 -54 0 -106 -10 -106 -21 0 -4 34 -24 75 -44 41 -20 75 -41 75 -48 0 -7
4 -6 10 3 14 21 12 30 -5 30 -9 0 -35 10 -58 22 l-42 22 75 9 c68 8 89 17 90
41 0 4 -7 5 -16 2 -15 -6 -105 34 -135 60 -9 8 -19 11 -22 7z"/>
<path d="M319 906 c-30 -14 -35 -45 -14 -86 l16 -30 32 24 c66 49 127 70 127
44 0 -7 -23 -42 -50 -78 -28 -35 -49 -71 -48 -79 4 -19 28 -27 28 -8 0 15 135
61 151 51 15 -9 10 13 -6 26 -10 9 -15 9 -15 1 0 -17 -47 -13 -54 4 -8 21 3
45 21 45 13 0 13 3 -1 23 -9 12 -21 34 -27 50 -10 26 -29 37 -29 18 0 -5 -30
-25 -66 -45 -55 -29 -66 -32 -71 -19 -9 22 26 45 55 38 16 -4 23 -2 20 6 -7
20 -43 28 -69 15z m158 -153 c4 -12 -35 -29 -44 -19 -8 8 18 37 30 33 6 -2 12
-8 14 -14z"/>
<path d="M2366 827 c-26 -26 -35 -67 -16 -67 6 0 10 8 10 18 0 47 55 55 107
16 39 -30 43 -65 11 -87 -13 -8 -20 -18 -16 -22 12 -12 48 15 54 42 14 54 -27
106 -93 119 -26 5 -37 1 -57 -19z"/>
<path d="M532 690 c-40 -33 -76 -60 -82 -60 -14 0 -13 -13 2 -28 16 -16 28
-15 29 1 0 13 117 113 143 123 22 8 20 24 -2 24 -11 0 -51 -27 -90 -60z"/>
<path d="M2281 720 c-12 -17 -19 -35 -15 -41 4 -6 11 -1 18 13 14 28 23 29 56
5 22 -15 23 -20 12 -38 -17 -26 -9 -35 11 -14 14 13 20 14 37 3 25 -16 25 -23
-1 -41 -13 -9 -16 -17 -10 -22 14 -8 26 -1 51 35 20 29 20 30 3 37 -10 4 -41
26 -69 50 -28 24 -55 43 -61 43 -5 0 -19 -14 -32 -30z"/>
<path d="M620 551 c0 -15 6 -21 21 -21 14 0 19 5 17 17 -5 26 -38 29 -38 4z"/>
<path d="M757 521 c-10 -21 -33 -55 -52 -76 -30 -32 -33 -38 -21 -51 8 -8 20
-14 27 -14 7 0 10 3 6 6 -3 4 1 20 9 35 13 25 17 28 35 18 27 -14 38 -3 14 14
-17 13 -17 15 0 40 21 33 28 33 47 5 13 -19 15 -19 21 -5 4 11 -3 22 -23 34
-17 9 -30 21 -30 25 0 20 -17 4 -33 -31z"/>
<path d="M2212 543 c2 -10 10 -18 18 -18 8 0 16 8 18 18 2 12 -3 17 -18 17
-15 0 -20 -5 -18 -17z"/>
<path d="M2042 518 c-15 -15 -16 -58 -2 -58 6 0 10 9 10 19 0 27 27 34 40 11
5 -10 10 -46 10 -79 0 -33 4 -62 8 -65 5 -3 25 6 44 19 27 18 35 30 31 45 -7
28 -23 36 -23 11 0 -11 -9 -25 -20 -31 -19 -10 -20 -8 -18 48 3 65 -10 92 -46
92 -12 0 -27 -5 -34 -12z"/>
<path d="M870 473 c-30 -11 -70 -57 -76 -89 -17 -90 86 -120 136 -39 45 73 8
153 -60 128z m51 -37 c22 -48 -50 -146 -86 -116 -20 17 -19 43 5 89 28 56 63
67 81 27z"/>
<path d="M1940 455 c-7 -9 -9 -22 -4 -32 7 -16 8 -15 11 5 5 27 42 31 44 5 2
-24 2 -25 -7 -47 -6 -16 -4 -18 14 -14 26 7 57 -24 48 -48 -4 -11 -14 -15 -32
-11 -15 3 -23 0 -21 -7 6 -18 43 -18 61 -1 24 24 20 61 -9 83 -14 11 -25 28
-25 39 0 40 -54 59 -80 28z"/>
<path d="M990 412 c0 -11 -9 -45 -20 -77 -23 -67 -19 -92 15 -101 45 -11 59
-1 86 65 25 65 44 85 55 58 5 -14 -15 -113 -31 -149 -5 -13 -3 -18 9 -18 11 0
16 9 17 28 0 15 6 45 12 66 l12 40 24 -77 c14 -43 29 -76 35 -74 9 3 18 31 40
130 4 16 13 27 23 27 14 0 15 -10 9 -84 l-7 -85 36 -7 c47 -8 81 14 96 65 24
80 -6 115 -107 125 l-62 7 -7 -55 c-3 -31 -10 -58 -14 -60 -3 -3 -15 25 -25
61 -17 57 -23 67 -52 79 -42 18 -54 18 -54 -1 0 -21 -46 -121 -60 -130 -6 -4
-19 -1 -27 8 -14 13 -13 22 7 81 12 36 27 66 33 66 13 1 -22 30 -35 30 -4 0
-8 -8 -8 -18z m383 -127 c5 -20 4 -44 -5 -70 -11 -33 -18 -41 -42 -43 l-29 -4
6 54 c4 29 7 63 7 76 0 19 5 23 27 20 21 -2 29 -10 36 -33z"/>
<path d="M1858 418 c-45 -35 -12 -115 42 -104 24 4 27 2 22 -20 -2 -13 -8 -27
-13 -30 -12 -7 -11 -24 2 -24 18 0 41 71 35 106 -7 36 -41 84 -60 84 -7 0 -19
-6 -28 -12z m42 -27 c14 -27 13 -61 -3 -61 -20 0 -37 21 -37 45 0 38 23 47 40
16z"/>
<path d="M1755 370 c-14 -16 -15 -20 -3 -20 18 0 52 -102 43 -131 -6 -17 -3
-19 22 -13 34 8 54 24 30 24 -12 0 -22 20 -38 73 -11 39 -24 75 -28 80 -4 4
-16 -2 -26 -13z"/>
<path d="M1563 343 c-23 -4 -33 -23 -13 -23 6 0 10 -8 10 -17 0 -9 5 -45 11
-80 11 -63 11 -63 45 -63 60 0 93 61 73 134 -14 51 -47 64 -126 49z m96 -62
c18 -57 6 -96 -29 -96 -23 0 -26 5 -36 73 l-11 73 31 -3 c27 -3 33 -9 45 -47z"/>
<path d="M1430 330 c-10 -6 -11 -10 -2 -10 8 0 12 -19 12 -62 0 -100 5 -110
53 -106 49 4 63 27 15 25 -30 -2 -33 1 -36 31 -3 26 0 32 17 32 11 0 23 5 26
10 4 6 -5 10 -19 10 -22 0 -26 4 -26 31 0 28 3 31 25 27 17 -4 25 -1 25 8 0
16 -67 19 -90 4z"/>
</g>
</svg>
