<?xml version="1.0" standalone="no"?>
<!DOCTYPE svg PUBLIC "-//W3C//DTD SVG 20010904//EN"
 "http://www.w3.org/TR/2001/REC-SVG-20010904/DTD/svg10.dtd">
<svg version="1.0" xmlns="http://www.w3.org/2000/svg"
 width="597.000000pt" height="253.000000pt" viewBox="0 0 597.000000 253.000000"
 preserveAspectRatio="xMidYMid meet">

<g transform="translate(0.000000,253.000000) scale(0.100000,-0.100000)"
fill="#000000" stroke="none">
<path d="M10 1265 l0 -1265 2975 0 2975 0 0 1265 0 1265 -2975 0 -2975 0 0
-1265z m898 972 c23 -23 42 -45 42 -49 0 -10 -173 -47 -222 -48 -5 0 -8 -58
-8 -130 l0 -130 110 0 110 0 0 -30 0 -30 -105 0 c-83 0 -107 -3 -111 -14 -17
-45 78 -249 167 -362 60 -75 60 -76 43 -101 l-17 -26 -71 74 c-39 41 -83 90
-98 109 l-27 35 -1 -367 0 -368 -60 0 -60 0 -2 368 -3 367 -34 -60 c-47 -83
-81 -126 -180 -227 l-85 -88 -23 22 -22 21 54 59 c107 116 184 251 241 425 19
57 34 111 34 119 0 11 -25 14 -140 14 l-140 0 0 30 0 30 150 0 150 0 0 124 0
125 -143 -6 -142 -6 -13 27 c-7 15 -10 31 -7 35 2 5 69 11 147 14 79 3 170 11
203 17 70 13 186 49 200 61 14 14 18 12 63 -34z m4332 -28 l0 -59 193 -2 192
-3 3 -112 3 -113 -196 0 -195 0 0 -50 0 -50 235 0 235 0 0 -24 c0 -43 -28
-174 -44 -204 -20 -39 -63 -56 -131 -50 l-55 5 0 -249 0 -248 -92 0 -93 -1 29
-23 c46 -38 195 -113 281 -141 44 -14 86 -28 93 -30 10 -4 9 -11 -3 -35 -8
-16 -19 -30 -23 -30 -4 0 -50 11 -102 24 -117 30 -257 79 -329 116 l-54 27 43
46 43 47 -287 0 c-157 0 -286 -1 -286 -3 0 -2 20 -18 45 -36 25 -18 45 -36 45
-41 0 -28 -207 -107 -394 -151 l-89 -20 -26 25 c-13 14 -23 27 -20 29 2 2 42
16 89 31 112 36 259 108 289 140 l24 26 -81 0 -82 0 0 249 0 248 -62 -17
c-123 -34 -132 -34 -151 -1 l-17 30 56 11 c141 29 253 81 313 144 l35 36 -198
0 c-109 0 -196 4 -194 8 2 5 23 57 48 115 l45 107 193 0 192 0 0 50 0 50 -195
0 -195 0 0 35 0 35 195 0 195 0 0 60 0 61 63 -3 62 -3 3 -57 3 -58 114 0 115
0 0 63 0 62 60 -3 60 -4 0 -59z m-3690 -354 c0 -325 3 -415 13 -415 6 0 55 14
107 30 52 16 95 28 96 27 1 -1 5 -14 9 -28 6 -26 4 -27 -107 -65 l-113 -39 -3
-283 -2 -282 -60 0 -60 0 0 260 c0 143 -3 260 -7 260 -4 0 -108 -32 -230 -72
-136 -44 -227 -68 -232 -62 -5 5 -12 18 -15 30 -6 19 12 26 239 99 l245 79 0
438 0 438 60 0 60 0 0 -415z m1340 315 l0 -30 -144 0 -145 0 -6 -47 c-16 -121
-50 -263 -80 -335 -7 -17 5 -18 164 -18 l171 0 0 -400 0 -400 -220 0 -220 0 0
296 0 297 -49 -74 c-84 -125 -82 -124 -119 -105 -18 9 -32 19 -32 21 0 3 15
26 34 52 106 149 184 387 204 621 l8 92 -98 0 -98 0 0 30 0 30 315 0 315 0 0
-30z m820 0 l0 -30 -60 0 -60 0 0 -255 0 -255 75 0 75 0 0 -35 0 -35 -75 0
-75 0 0 -380 0 -380 -65 0 -65 0 0 380 0 380 -110 0 -110 0 0 -63 c0 -160 -55
-354 -135 -478 -48 -74 -138 -176 -188 -211 -27 -19 -27 -19 -62 2 l-35 22 79
77 c126 123 191 277 211 503 15 166 26 148 -90 148 l-100 0 0 35 0 35 95 0 95
0 0 255 0 255 -75 0 -75 0 0 30 0 30 375 0 375 0 0 -30z m-2510 -106 c30 -23
70 -57 88 -76 l33 -34 -36 -47 c-20 -26 -39 -47 -43 -47 -4 1 -20 22 -37 48
-16 26 -58 80 -93 120 -59 68 -63 76 -53 99 l11 24 38 -22 c20 -13 62 -42 92
-65z m-60 -322 c61 -48 129 -113 141 -135 8 -14 3 -29 -21 -68 -35 -54 -45
-59 -55 -29 -9 28 -114 166 -159 209 -35 34 -35 35 -19 62 17 28 18 28 43 12
14 -8 45 -32 70 -51z m-580 -1262 c0 -38 2 -70 5 -70 3 0 48 32 99 71 84 62
99 70 132 67 l38 -3 -72 -54 -72 -53 59 -67 c32 -36 68 -75 80 -85 29 -27 26
-36 -11 -36 -27 0 -43 12 -103 77 l-70 76 -42 -29 c-39 -27 -42 -32 -43 -76 0
-47 -1 -48 -30 -48 l-30 0 0 150 0 150 30 0 30 0 0 -70z m983 8 c19 -35 55
-102 81 -150 l47 -88 -34 0 c-29 0 -37 5 -47 30 l-12 30 -104 0 -103 0 -16
-30 c-12 -23 -22 -30 -45 -30 l-30 0 77 150 78 150 37 0 c35 0 39 -3 71 -62z
m657 -8 c0 -38 2 -70 5 -70 3 0 48 32 99 71 84 62 99 70 132 67 l38 -3 -72
-54 -72 -53 59 -67 c32 -36 68 -75 80 -85 29 -27 26 -36 -11 -36 -27 0 -43 12
-103 77 l-70 76 -42 -29 c-39 -27 -42 -32 -43 -76 0 -47 -1 -48 -30 -48 l-30
0 0 150 0 150 30 0 30 0 0 -70z m1078 48 c-3 -22 -7 -23 -130 -26 l-128 -3 0
-34 0 -35 90 0 c89 0 90 0 90 -25 0 -25 -1 -25 -90 -25 l-90 0 0 -40 0 -39
133 -3 c128 -3 132 -4 135 -25 l3 -23 -165 0 -166 0 0 150 0 150 161 0 160 0
-3 -22z m681 -95 l111 -118 0 118 0 117 30 0 30 0 0 -150 0 -150 -38 0 c-35 0
-44 7 -147 120 l-110 120 -3 -120 -3 -120 -24 0 -25 0 0 150 0 150 34 0 c31 0
46 -12 145 -117z m741 57 l0 -60 120 0 120 0 0 60 c0 57 1 60 25 60 l25 0 0
-150 0 -150 -25 0 c-24 0 -25 2 -25 65 l0 65 -120 0 -120 0 0 -65 0 -65 -30 0
-30 0 0 150 0 150 30 0 30 0 0 -60z m890 -90 l0 -150 -25 0 -25 0 0 150 0 150
25 0 25 0 0 -150z"/>
<path d="M4890 2030 l0 -50 115 0 115 0 0 50 0 50 -115 0 -115 0 0 -50z"/>
<path d="M5240 2030 l0 -50 130 0 130 0 0 50 0 50 -130 0 -130 0 0 -50z"/>
<path d="M4472 1870 l-21 -50 134 0 c148 0 145 -1 160 68 l7 32 -130 0 -129 0
-21 -50z"/>
<path d="M4871 1876 c-6 -25 -11 -47 -11 -50 0 -3 59 -6 130 -6 l130 0 0 50 0
50 -119 0 -119 0 -11 -44z"/>
<path d="M4785 1716 c-16 -17 -43 -42 -60 -54 l-30 -21 213 -1 212 0 0 55 0
55 -152 -1 -153 0 -30 -33z"/>
<path d="M5240 1695 l0 -55 120 0 c101 0 120 -2 120 -15 0 -21 24 -29 48 -16
13 7 24 29 31 61 19 86 31 80 -154 80 l-165 0 0 -55z"/>
<path d="M4624 1566 c-3 -7 -4 -33 -2 -57 l3 -44 363 -3 362 -2 0 60 0 60
-360 0 c-298 0 -362 -2 -366 -14z"/>
<path d="M4620 1345 l0 -55 365 0 365 0 0 55 0 55 -365 0 -365 0 0 -55z"/>
<path d="M4620 1165 l0 -55 365 0 365 0 0 55 0 55 -365 0 -365 0 0 -55z"/>
<path d="M2530 1340 l0 -340 95 0 95 0 0 340 0 340 -95 0 -95 0 0 -340z"/>
<path d="M3240 1885 l0 -255 110 0 110 0 0 255 0 255 -110 0 -110 0 0 -255z"/>
<path d="M1436 430 l-37 -70 70 0 c50 0 71 4 71 13 0 6 -16 38 -34 70 l-33 58
-37 -71z"/>
</g>
</svg>
