<?xml version="1.0" standalone="no"?>
<!DOCTYPE svg PUBLIC "-//W3C//DTD SVG 20010904//EN"
 "http://www.w3.org/TR/2001/REC-SVG-20010904/DTD/svg10.dtd">
<svg version="1.0" xmlns="http://www.w3.org/2000/svg"
 width="155.000000pt" height="157.000000pt" viewBox="0 0 155.000000 157.000000"
 preserveAspectRatio="xMidYMid meet">

<g transform="translate(0.000000,157.000000) scale(0.100000,-0.100000)"
fill="#000000" stroke="none">
<path d="M576 1561 c-4 -5 -2 -12 3 -15 5 -4 12 -2 15 3 4 5 2 12 -3 15 -5 4
-12 2 -15 -3z"/>
<path d="M845 1528 c-51 -27 -60 -84 -20 -123 13 -14 29 -25 34 -25 6 0 -1 11
-14 25 -45 45 -26 110 37 125 27 7 29 8 8 9 -14 0 -34 -5 -45 -11z"/>
<path d="M585 1510 c3 -10 11 -46 18 -78 7 -35 17 -57 23 -55 9 3 8 16 -2 50
-8 25 -15 59 -16 74 -1 17 -8 29 -16 29 -9 0 -11 -7 -7 -20z"/>
<path d="M931 1513 c7 -10 15 -20 16 -22 2 -2 3 3 3 11 0 9 -7 19 -16 22 -15
6 -15 4 -3 -11z"/>
<path d="M440 1510 c0 -5 5 -10 10 -10 6 0 10 5 10 10 0 6 -4 10 -10 10 -5 0
-10 -4 -10 -10z"/>
<path d="M458 1484 c-6 -6 58 -162 73 -178 17 -19 9 9 -27 94 -39 94 -38 92
-46 84z"/>
<path d="M1060 1434 c-33 -28 -65 -82 -55 -92 6 -6 20 11 28 32 2 7 22 -1 65
-30 2 -1 -1 -11 -7 -22 -8 -16 -7 -21 6 -27 10 -3 14 -3 11 1 -4 4 -3 14 2 24
14 26 29 100 20 100 -4 0 -10 -13 -13 -30 -7 -34 -22 -37 -55 -12 l-24 18 36
32 c44 38 31 43 -14 6z"/>
<path d="M310 1440 c0 -5 5 -10 10 -10 6 0 10 5 10 10 0 6 -4 10 -10 10 -5 0
-10 -4 -10 -10z"/>
<path d="M918 1410 c-3 -16 -2 -30 2 -30 3 0 11 14 17 30 9 24 9 30 -2 30 -7
0 -15 -13 -17 -30z"/>
<path d="M330 1417 c0 -12 83 -127 91 -127 12 0 -66 123 -80 128 -6 2 -11 2
-11 -1z"/>
<path d="M1212 1299 c-30 -32 -49 -60 -43 -63 6 -4 18 5 27 19 26 40 34 30 34
-42 1 -47 6 -74 17 -88 l16 -20 -8 20 c-14 35 -17 74 -11 109 5 28 12 36 34
39 21 3 19 4 -10 6 -45 1 -48 12 -11 41 15 11 22 24 17 28 -5 5 -33 -18 -62
-49z"/>
<path d="M206 1311 l-27 -28 50 -43 c28 -23 51 -49 51 -58 0 -11 10 -6 35 18
19 18 32 36 29 39 -3 3 -14 -5 -24 -19 l-19 -25 -27 27 c-28 27 -28 27 -8 50
l19 23 -22 -19 c-23 -19 -23 -19 -44 0 l-21 19 27 22 c14 13 22 23 17 23 -4 0
-21 -13 -36 -29z"/>
<path d="M1315 1290 c-3 -5 1 -10 10 -10 9 0 13 5 10 10 -3 6 -8 10 -10 10 -2
0 -7 -4 -10 -10z"/>
<path d="M1371 1174 c-34 -23 -71 -70 -71 -89 0 -5 9 4 19 21 10 17 37 40 59
51 23 11 37 24 34 30 -5 7 -19 2 -41 -13z"/>
<path d="M96 1163 c-3 -8 -6 -27 -6 -42 0 -17 -11 -38 -30 -56 -31 -30 -38
-45 -20 -45 6 0 37 -13 70 -28 45 -22 60 -26 64 -15 3 7 -1 13 -9 13 -24 0
-105 43 -105 56 0 30 27 34 76 13 27 -12 52 -26 55 -31 3 -5 9 -4 11 4 4 8
-13 21 -48 37 -47 21 -54 27 -54 52 0 16 2 29 5 29 3 0 31 -13 64 -29 47 -23
61 -26 65 -15 3 9 -1 14 -12 14 -9 0 -40 13 -69 29 -42 23 -53 26 -57 14z"/>
<path d="M355 1114 c44 -13 45 -16 45 -248 0 -230 -3 -246 -42 -246 -10 0 -18
-3 -18 -7 0 -5 39 -6 87 -4 49 3 78 6 65 9 -13 2 -27 14 -33 28 -9 26 -13 407
-4 416 3 3 45 -7 93 -21 l87 -27 3 -177 c3 -187 -2 -213 -40 -220 -13 -2 -5
-5 18 -6 40 -1 42 -2 54 -46 16 -58 70 -119 134 -153 46 -24 62 -27 151 -27
80 0 108 4 140 20 l40 20 3 82 c3 80 4 83 30 90 18 5 -11 10 -89 13 -77 4
-122 10 -133 19 -14 12 -16 33 -14 140 l3 126 40 -3 c57 -5 106 -32 135 -76
28 -43 34 -37 22 19 -7 35 -12 40 -57 56 -28 10 -71 18 -97 18 l-48 1 0 89 c0
91 5 103 45 115 11 3 1 4 -22 2 -23 -2 -98 -21 -166 -41 l-124 -37 -119 36
c-65 20 -139 39 -164 41 -25 2 -36 2 -25 -1z m515 -126 l0 -83 -44 -18 c-24
-10 -64 -39 -90 -65 l-47 -46 3 119 3 119 85 27 c47 15 86 28 88 28 1 1 2 -36
2 -81z m-2 -235 c-3 -119 -4 -128 -23 -131 -41 -8 -33 -17 11 -13 73 5 193 -9
209 -26 10 -10 15 -36 15 -82 0 -89 -8 -96 -116 -96 -75 0 -86 2 -125 30 -24
17 -57 53 -74 80 -27 44 -30 56 -30 134 0 69 5 94 22 128 21 38 87 103 106
103 4 0 6 -57 5 -127z"/>
<path d="M1443 1099 c-7 -7 -36 -20 -65 -31 -52 -19 -53 -19 -12 -14 59 8 104
29 95 44 -5 9 -10 9 -18 1z"/>
<path d="M1520 970 c0 -5 4 -10 9 -10 6 0 13 5 16 10 3 6 -1 10 -9 10 -9 0
-16 -4 -16 -10z"/>
<path d="M1423 952 c-39 -9 -63 -21 -63 -29 0 -10 5 -11 18 -4 9 5 43 14 75
21 31 7 57 17 57 22 0 10 -11 9 -87 -10z"/>
<path d="M62 813 c-2 -28 -6 -32 -34 -36 l-33 -4 32 -1 c28 -2 32 -6 36 -34
l4 -33 1 32 c2 28 6 32 35 36 l32 4 -32 1 c-28 2 -32 6 -36 35 l-4 32 -1 -32z"/>
<path d="M1380 820 c0 -6 30 -10 70 -10 l70 0 0 -41 0 -41 -70 4 c-53 2 -70 0
-70 -10 0 -10 18 -13 75 -10 l75 3 0 58 0 57 -75 0 c-43 0 -75 -4 -75 -10z"/>
<path d="M20 554 c0 -7 8 -10 18 -8 9 2 29 1 45 -3 l27 -8 -29 -36 c-16 -19
-26 -40 -23 -46 4 -7 19 7 37 33 28 41 75 70 90 56 3 -4 3 1 0 10 -5 13 -11
14 -35 5 -21 -8 -44 -8 -80 -1 -38 8 -50 8 -50 -2z"/>
<path d="M1395 513 c28 -8 54 -19 60 -24 14 -13 22 -11 29 8 4 10 4 14 1 11
-4 -4 -25 0 -47 8 -22 8 -52 14 -67 13 -19 0 -12 -5 24 -16z"/>
<path d="M1320 483 c0 -16 27 -47 64 -72 34 -24 45 -27 49 -17 4 9 -3 16 -18
20 -13 3 -40 21 -59 40 -20 18 -36 31 -36 29z"/>
<path d="M250 415 c0 -6 -23 -28 -52 -49 l-51 -39 -19 23 c-10 13 -21 21 -23
18 -3 -3 1 -11 10 -18 19 -16 19 -39 1 -46 -8 -3 -12 -12 -9 -21 5 -13 7 -13
15 1 12 22 35 20 43 -4 3 -11 11 -20 16 -20 6 0 3 10 -5 22 -9 12 -16 26 -16
29 0 4 24 25 54 46 42 30 53 42 46 53 -6 8 -10 10 -10 5z"/>
<path d="M1236 382 c-3 -5 17 -31 44 -56 28 -26 50 -50 50 -55 0 -4 -12 -18
-26 -32 l-25 -24 -50 52 c-27 28 -51 48 -54 43 -2 -4 19 -32 48 -61 l53 -54
40 45 40 45 -57 53 c-31 29 -60 49 -63 44z"/>
<path d="M337 287 c-9 -12 -31 -39 -50 -59 -29 -31 -33 -39 -21 -49 11 -9 14
-8 14 2 0 8 20 38 45 66 25 28 41 54 36 57 -5 3 -16 -4 -24 -17z"/>
<path d="M1093 253 c-12 -4 64 -133 79 -133 13 0 10 9 -22 55 -17 24 -34 53
-38 63 -4 10 -12 17 -19 15z"/>
<path d="M412 228 c-16 -16 -15 -31 5 -73 14 -30 15 -40 5 -56 -12 -19 -11
-19 8 -9 24 13 25 29 4 74 -9 19 -14 41 -11 50 9 23 43 20 61 -6 9 -12 16 -18
16 -12 0 5 -5 15 -12 22 -8 8 -9 12 -1 12 13 0 63 -58 84 -97 11 -21 11 -27 1
-31 -7 -2 -17 -13 -23 -24 -8 -15 -7 -24 7 -39 9 -10 22 -19 27 -19 6 0 3 6
-7 13 -23 17 -17 49 10 61 21 10 21 10 -8 58 -16 26 -41 57 -55 68 -29 22 -92
27 -111 8z"/>
<path d="M950 122 c0 -39 -3 -77 -6 -86 -3 -9 -1 -16 5 -16 7 0 11 25 11 68
l1 67 39 -44 c21 -25 37 -48 34 -53 -6 -10 7 -10 22 0 8 4 -9 29 -47 71 l-59
64 0 -71z"/>
<path d="M230 160 c0 -5 5 -10 10 -10 6 0 10 5 10 10 0 6 -4 10 -10 10 -5 0
-10 -4 -10 -10z"/>
<path d="M640 137 c0 -13 -3 -27 -7 -30 -3 -4 -7 -18 -9 -32 -1 -14 -5 -34 -9
-45 -5 -14 -2 -20 10 -20 9 0 14 4 11 9 -3 4 3 38 13 75 15 53 16 66 5 66 -8
0 -14 -10 -14 -23z"/>
<path d="M798 147 c6 -6 10 -40 11 -74 l0 -62 -32 -4 c-25 -3 -22 -4 14 -5
l45 -2 -8 68 c-4 37 -6 73 -3 80 2 7 -4 12 -17 12 -15 0 -18 -3 -10 -13z"/>
<path d="M1180 100 c0 -5 5 -10 10 -10 6 0 10 5 10 10 0 6 -4 10 -10 10 -5 0
-10 -4 -10 -10z"/>
</g>
</svg>
