<?xml version="1.0" standalone="no"?>
<!DOCTYPE svg PUBLIC "-//W3C//DTD SVG 20010904//EN"
 "http://www.w3.org/TR/2001/REC-SVG-20010904/DTD/svg10.dtd">
<svg version="1.0" xmlns="http://www.w3.org/2000/svg"
 width="226.000000pt" height="223.000000pt" viewBox="0 0 226.000000 223.000000"
 preserveAspectRatio="xMidYMid meet">

<g transform="translate(0.000000,223.000000) scale(0.100000,-0.100000)"
fill="#000000" stroke="none">
<path d="M958 2084 c-174 -31 -348 -119 -479 -242 -104 -97 -162 -176 -220
-297 -222 -462 -52 -1012 391 -1270 149 -86 305 -127 485 -127 273 -1 497 93
691 286 140 142 222 290 265 489 17 77 20 116 16 232 -6 169 -27 257 -97 400
-190 390 -622 607 -1052 529z m406 -33 c167 -44 298 -116 420 -231 195 -184
291 -392 303 -660 8 -191 -31 -352 -128 -519 -120 -208 -335 -374 -574 -443
-71 -20 -101 -23 -255 -22 -164 0 -180 2 -260 28 -169 56 -301 137 -418 256
-354 362 -358 943 -9 1317 141 151 349 261 552 293 92 14 278 4 369 -19z"/>
<path d="M988 1970 c-225 -38 -438 -180 -568 -378 -224 -342 -174 -791 122
-1084 69 -69 138 -120 138 -102 0 4 -14 35 -31 70 -27 55 -31 72 -27 122 2 34
12 71 22 87 l18 27 40 -38 c22 -22 46 -51 54 -66 20 -39 18 -91 -6 -113 -32
-29 -34 -52 -6 -88 46 -58 55 -66 83 -73 16 -4 35 -13 44 -20 12 -11 79 -14
297 -16 155 -2 282 -2 282 -2 0 1 -9 21 -20 45 -12 28 -20 68 -21 109 -1 61
-1 63 -11 30 -9 -33 -6 -99 7 -145 6 -19 1 -20 -157 -19 -90 0 -162 3 -160 7
1 4 2 15 2 25 0 10 12 22 29 29 l29 11 0 93 c0 58 -7 123 -19 171 -10 42 -19
82 -19 89 0 7 19 -5 43 -28 70 -67 141 -118 200 -144 31 -13 57 -31 58 -39 0
-10 2 -11 6 -2 3 7 24 12 55 12 67 0 120 17 160 50 30 26 33 32 34 89 0 41 5
66 17 78 16 18 20 66 5 57 -4 -3 -5 -11 -1 -20 3 -8 -3 -24 -13 -35 -14 -15
-19 -37 -20 -77 -1 -48 -4 -58 -31 -83 -19 -16 -54 -32 -87 -40 -48 -10 -64
-10 -121 6 -36 9 -93 35 -126 57 -83 53 -169 136 -169 162 0 15 -3 17 -9 8
-16 -26 -46 -7 -88 57 -50 75 -57 130 -22 175 37 47 90 29 113 -39 12 -35 18
-40 48 -43 18 -2 37 -10 41 -18 10 -18 71 -18 86 -1 6 8 14 29 18 47 3 19 17
50 30 69 19 28 23 45 19 76 -2 22 -6 51 -8 64 -2 20 5 29 33 44 21 11 43 30
50 43 7 13 21 24 31 24 26 0 74 26 81 43 3 8 20 17 39 19 18 3 40 8 49 12 13
6 21 -4 37 -46 11 -29 23 -70 25 -90 5 -36 96 -254 97 -231 0 6 -20 58 -45
116 -25 58 -45 118 -45 134 0 15 -9 48 -20 72 -12 26 -18 52 -14 65 19 58 13
92 -22 126 -37 36 -39 42 -24 70 22 40 -14 69 -58 46 -38 -19 -56 -11 -37 17
24 34 18 40 -33 34 l-48 -6 5 40 c4 28 20 55 58 98 52 59 52 59 30 73 -40 27
-151 66 -229 82 -81 17 -239 19 -320 6z m303 -26 c81 -15 229 -69 229 -82 -1
-9 -15 -28 -57 -75 l-32 -37 -78 27 c-70 25 -92 28 -213 28 -115 0 -145 -3
-205 -23 -141 -47 -246 -120 -337 -233 -182 -227 -197 -562 -36 -805 46 -68
46 -70 41 -136 -3 -38 -1 -80 6 -99 6 -18 10 -34 8 -35 -2 -2 -31 24 -66 59
-271 269 -326 671 -138 1007 55 98 196 242 295 300 181 107 382 142 583 104z
m-19 -169 c37 -7 90 -24 118 -37 52 -24 56 -36 25 -80 -19 -28 -89 -80 -93
-69 -6 17 36 87 63 105 15 10 24 20 21 23 -3 3 -12 0 -20 -6 -10 -9 -20 -9
-33 -2 -11 5 -57 17 -103 27 -203 41 -415 -28 -561 -183 -78 -83 -110 -135
-145 -239 -23 -66 -27 -96 -27 -189 -1 -146 34 -262 110 -363 20 -27 22 -36
13 -48 -10 -11 -16 -12 -26 -3 -28 23 -83 126 -110 204 -24 69 -28 96 -28 200
-1 138 19 222 81 335 55 100 178 216 283 267 139 68 289 89 432 58z m30 -80
l48 -17 -17 -31 c-13 -25 -18 -28 -21 -14 -2 9 -9 17 -17 17 -17 0 -85 -76
-85 -95 0 -8 -4 -15 -10 -15 -5 0 -10 -13 -10 -29 0 -19 -13 -43 -40 -72 l-39
-44 -1 33 c0 50 -19 64 -51 41 -27 -19 -56 -75 -45 -86 3 -3 6 1 6 10 0 21 49
79 61 71 26 -16 2 -87 -42 -122 l-29 -24 0 25 c0 14 -7 30 -15 37 -12 10 -20
7 -44 -19 -16 -17 -33 -46 -36 -63 -5 -23 -9 -27 -16 -17 -7 11 -16 7 -39 -19
-17 -18 -30 -38 -30 -45 0 -6 9 3 20 21 11 19 26 32 33 29 22 -7 20 -75 -3
-112 -25 -41 -38 -44 -44 -13 -3 13 -7 32 -9 43 -3 13 -5 10 -6 -10 -2 -28 -3
-29 -16 -11 -7 10 -18 15 -23 12 -17 -10 -42 -73 -41 -103 1 -21 3 -18 10 16
12 61 26 77 50 55 28 -25 25 -86 -6 -121 -24 -27 -25 -28 -31 -6 -3 11 -13 24
-22 27 -10 3 -23 9 -30 12 -15 7 -42 -53 -42 -97 0 -24 -4 -30 -16 -25 -11 4
-20 -6 -33 -35 l-18 -40 -18 43 c-98 241 -49 480 132 654 73 71 205 137 313
158 52 10 226 -2 272 -19z m208 -46 c-6 -11 -26 -29 -43 -39 -18 -11 -27 -20
-22 -20 6 0 17 4 25 10 9 5 19 5 27 -2 10 -8 -10 -33 -86 -108 -108 -108 -203
-222 -288 -347 -42 -61 -62 -83 -78 -83 -29 0 -71 -43 -78 -79 -3 -16 -2 -41
2 -57 7 -23 3 -36 -17 -64 l-25 -35 26 24 c24 22 47 22 47 0 0 -5 -28 -30 -62
-55 -37 -28 -53 -43 -38 -39 14 4 46 23 72 42 46 34 47 34 58 13 6 -12 9 -28
6 -36 -3 -8 1 -53 10 -100 21 -121 21 -121 -84 -126 -48 -2 -95 -9 -105 -14
-13 -7 9 -9 75 -7 148 6 142 2 134 81 -3 37 -9 88 -12 114 -6 43 -5 46 13 42
14 -4 24 -26 41 -92 24 -94 28 -143 12 -172 -9 -18 -23 -19 -175 -17 -91 1
-165 2 -165 2 0 0 5 16 10 35 15 50 4 84 -46 146 -24 29 -44 58 -44 64 0 5 -5
10 -10 10 -16 0 16 56 42 74 23 16 88 22 88 8 0 -6 -19 -37 -36 -60 -1 -2 -20
-10 -41 -17 -24 -9 -31 -14 -17 -15 48 -1 137 89 106 108 -9 7 -7 13 9 28 19
17 49 65 49 79 0 3 -8 5 -17 5 -12 0 -7 7 14 20 38 23 71 79 53 90 -7 5 -3 13
14 24 14 9 33 30 42 47 20 39 6 52 -43 44 -43 -8 -41 3 6 49 28 27 50 39 80
43 22 3 41 2 41 -1 0 -19 -24 -49 -53 -66 -18 -11 -27 -20 -22 -20 6 0 23 8
38 19 65 43 72 97 11 85 -44 -8 -44 8 0 52 25 25 43 34 68 34 55 0 64 -13 28
-44 -17 -14 -36 -26 -42 -26 -6 0 -9 -3 -6 -6 10 -10 64 24 82 50 15 25 15 26
-1 27 -10 0 5 9 33 20 58 22 98 55 90 74 -3 8 0 16 7 19 7 3 -8 2 -32 -1 -41
-6 -43 -5 -32 15 15 27 68 59 114 67 44 9 46 1 10 -39 -28 -29 -28 -30 -3 -14
14 8 34 30 44 48 l19 32 -31 -7 c-39 -8 -41 3 -4 38 30 29 66 45 100 46 20 1
21 -2 12 -20z m-210 -43 c0 -27 -9 -44 -40 -76 -23 -24 -43 -40 -47 -37 -13
13 10 80 39 112 38 44 48 44 48 1z m306 3 c3 -6 1 -22 -7 -35 -12 -23 -10 -28
30 -68 l43 -44 -23 -15 c-13 -8 -46 -20 -74 -26 -27 -7 -86 -30 -131 -51 -95
-46 -161 -111 -256 -254 -33 -50 -63 -93 -65 -95 -2 -3 -13 4 -24 15 -20 20
-20 20 22 85 95 147 281 354 409 456 59 46 65 49 76 32z m-316 -148 c0 -29
-78 -71 -130 -71 -28 0 -30 2 -20 21 17 31 70 59 113 59 20 0 37 -4 37 -9z
m360 -61 c0 -14 -59 -42 -76 -36 -19 7 -7 34 19 39 40 8 57 7 57 -3z m-110
-25 c0 -23 -46 -65 -70 -65 -15 0 -20 6 -20 25 0 20 8 29 33 40 42 19 57 18
57 0z m-550 -49 c0 -34 -39 -103 -55 -98 -6 1 -10 23 -9 47 0 32 7 52 24 70
28 30 40 24 40 -19z m435 -23 c-8 -34 -31 -60 -59 -69 -11 -4 -27 -15 -34 -25
-25 -36 -62 -17 -42 21 14 26 107 100 127 100 12 0 14 -7 8 -27z m-135 -169
c0 -7 -16 -31 -35 -54 -46 -55 -45 -63 2 -19 21 18 39 35 42 36 2 1 4 16 5 34
2 45 22 47 36 5 12 -37 -1 -78 -34 -105 -9 -8 -16 -27 -16 -43 0 -61 -39 -88
-72 -50 -19 21 -30 141 -15 168 5 10 21 32 36 47 24 26 27 27 38 11 7 -10 13
-23 13 -30z m-300 15 c0 -23 -66 -76 -104 -83 -48 -9 -55 -3 -30 32 34 45 134
84 134 51z m-60 -107 c0 -14 -31 -52 -53 -64 -27 -14 -107 -28 -107 -18 0 17
46 63 74 76 34 15 86 18 86 6z m245 -59 c-4 -16 -12 -23 -23 -21 -25 5 -25 31
0 64 23 29 23 29 26 5 2 -13 1 -34 -3 -48z m-446 43 c21 -25 24 -81 7 -114 -9
-18 -21 -32 -26 -32 -28 0 -40 88 -18 135 13 29 21 31 37 11z m141 -96 c0 -6
-15 -26 -33 -46 -24 -26 -43 -37 -75 -41 -33 -4 -42 -3 -42 9 0 21 38 68 64
78 30 12 86 12 86 0z m-179 -78 c3 -40 -17 -102 -32 -102 -15 0 -39 58 -39 95
0 20 5 46 11 58 12 21 12 21 35 -7 13 -15 25 -35 25 -44z m77 -394 c-4 -27
-28 -36 -28 -10 0 20 8 32 22 32 5 0 8 -10 6 -22z m144 -65 c3 -43 3 -80 2
-82 -2 -2 -14 4 -28 12 -47 31 -44 147 3 147 16 0 19 -10 23 -77z m105 46 c3
-17 18 -40 34 -52 34 -25 35 -31 9 -57 -13 -13 -33 -20 -60 -20 -34 0 -42 4
-55 30 -32 62 -14 130 36 130 25 0 30 -5 36 -31z m113 11 c26 -49 -42 -84 -74
-38 -24 35 -19 46 22 51 20 2 38 4 39 5 1 1 7 -7 13 -18z m-294 -45 c0 -57 -4
-62 -37 -45 -14 8 -19 21 -19 49 0 43 5 51 35 51 19 0 21 -6 21 -55z"/>
<path d="M1149 1890 c-6 -45 -4 -58 7 -48 3 3 4 26 2 49 l-3 44 -6 -45z"/>
<path d="M1012 1878 c10 -45 18 -61 18 -36 0 30 -13 78 -20 78 -4 0 -4 -19 2
-42z"/>
<path d="M1286 1871 c-9 -24 -15 -46 -12 -48 7 -7 37 68 33 81 -2 5 -11 -10
-21 -33z"/>
<path d="M860 1885 c0 -13 42 -86 46 -82 6 5 -33 87 -41 87 -3 0 -5 -2 -5 -5z"/>
<path d="M1405 1845 c-15 -20 -25 -39 -22 -41 3 -3 17 11 32 31 15 19 26 38
23 41 -3 2 -18 -12 -33 -31z"/>
<path d="M750 1785 c18 -19 36 -32 39 -30 6 7 -50 65 -63 65 -5 0 5 -16 24
-35z"/>
<path d="M608 1718 c15 -18 72 -51 72 -41 0 8 -64 53 -76 53 -4 0 -2 -6 4 -12z"/>
<path d="M490 1615 c0 -9 66 -35 87 -35 11 1 6 6 -13 14 -45 20 -74 28 -74 21z"/>
<path d="M435 1470 c17 -4 41 -8 55 -9 20 0 22 1 10 9 -8 5 -33 9 -55 9 -39
-1 -39 -2 -10 -9z"/>
<path d="M405 1343 c-22 -3 -44 -8 -48 -13 -12 -11 85 0 98 11 6 6 6 8 0 7 -6
-1 -28 -3 -50 -5z"/>
<path d="M373 1197 c-17 -7 -35 -16 -40 -21 -9 -10 27 0 72 19 37 17 11 18
-32 2z"/>
<path d="M372 1049 c-24 -17 -41 -33 -38 -36 5 -5 96 54 96 62 0 11 -17 3 -58
-26z"/>
<path d="M401 905 c-44 -50 -38 -56 9 -10 43 42 45 45 31 45 -5 0 -23 -16 -40
-35z"/>
<path d="M462 764 c-13 -26 -21 -49 -18 -51 3 -3 16 18 30 46 15 28 23 51 18
51 -4 0 -18 -21 -30 -46z"/>
<path d="M541 656 c-7 -32 -11 -60 -8 -62 7 -7 30 93 25 107 -2 7 -10 -14 -17
-45z"/>
<path d="M1141 1535 c-17 -20 -31 -41 -31 -48 0 -7 6 -3 12 8 18 33 50 65 59
59 5 -3 9 0 9 5 0 20 -18 11 -49 -24z"/>
<path d="M1570 1256 c0 -2 11 -6 25 -8 13 -3 22 -1 19 3 -5 9 -44 13 -44 5z"/>
<path d="M1489 1203 c-13 -16 -12 -17 4 -4 16 13 21 21 13 21 -2 0 -10 -8 -17
-17z"/>
<path d="M1595 1201 c-3 -6 -13 -11 -21 -11 -9 0 -34 -13 -57 -29 -23 -15 -49
-31 -57 -34 -8 -3 3 -6 25 -6 25 0 35 2 27 8 -10 6 -8 11 10 23 45 28 59 30
66 6 5 -20 7 -19 13 12 8 37 6 49 -6 31z"/>
<path d="M1560 1120 l-25 -8 28 -1 c15 -1 27 4 27 9 0 6 -1 10 -2 9 -2 -1 -14
-5 -28 -9z"/>
<path d="M1026 1012 c-3 -5 5 -8 17 -8 16 1 23 -7 28 -29 l7 -30 1 31 c1 21
-5 34 -15 38 -21 8 -32 8 -38 -2z"/>
<path d="M1631 994 c0 -11 3 -14 6 -6 3 7 2 16 -1 19 -3 4 -6 -2 -5 -13z"/>
<path d="M1771 960 c-13 -11 -19 -20 -14 -20 6 0 18 9 28 20 23 25 17 25 -14
0z"/>
<path d="M1660 945 c-14 -8 -20 -14 -14 -15 5 0 19 7 30 15 24 18 16 19 -16 0z"/>
<path d="M1682 885 c0 -16 2 -22 5 -12 2 9 2 23 0 30 -3 6 -5 -1 -5 -18z"/>
<path d="M1076 838 c3 -5 10 -6 15 -3 13 9 11 12 -6 12 -8 0 -12 -4 -9 -9z"/>
<path d="M1643 824 l-28 -25 32 21 c17 12 36 19 42 16 6 -4 11 -2 11 3 0 19
-28 12 -57 -15z"/>
</g>
</svg>
