<svg xmlns="http://www.w3.org/2000/svg" viewBox="0 0 113.19 113.4"><defs><style>.cls-1{fill:#4694d1;}.cls-2{fill:#fabe00;}</style></defs><g id="レイヤー_2" data-name="レイヤー 2"><g id="レイヤー_1-2" data-name="レイヤー 1"><path class="cls-1" d="M113.19,56.17A2.16,2.16,0,0,0,111.06,54a2.84,2.84,0,0,0-.5.06,225.8,225.8,0,0,1-58.44,4.35,138.07,138.07,0,0,0-18.24.46c-.46,0-.91.09-1.36.15A22.76,22.76,0,0,0,13.24,76.73a24.55,24.55,0,0,0,1.87,15.42,28.77,28.77,0,0,0,9.8,11.65A56.51,56.51,0,0,0,49.8,113c.05-1.33,2.07-3.42,2.14-4.42a1.84,1.84,0,0,0-1.69-2c-5.5.21-9.54.08-14.7-1.85a35.32,35.32,0,0,1-13.87-9.46,21.38,21.38,0,0,1-4.31-6.78A19.44,19.44,0,0,1,47,66a19.8,19.8,0,0,1,5.27,5.82A38.11,38.11,0,0,1,56,79.93,44.44,44.44,0,0,1,57.16,98.5a50.42,50.42,0,0,1-1.62,7.7c-.43,1.45-.93,2.87-1.49,4.25a2.22,2.22,0,0,0-.17.82A2.12,2.12,0,0,0,56,113.39h.54A56.39,56.39,0,0,0,93,100.09l0,0a2,2,0,0,0,.64-1.49,2.33,2.33,0,0,0-.35-1.17C89.59,91,81.55,81.75,81.55,81.75s9.11,8.17,15.64,11.74a2.43,2.43,0,0,0,1.17.35,2.12,2.12,0,0,0,1.5-.62l.06-.07a56.51,56.51,0,0,0,13.27-36.46v-.52"/><path class="cls-2" d="M10.76,82.14a45.28,45.28,0,0,1-4-15.79c0-.74,0-1.73,0-2.47a1.84,1.84,0,0,0-1.84-1.83c-1,0-3.17,1.86-4.69,1.86A57,57,0,0,0,15.59,96a32.66,32.66,0,0,0,14.92,9.14,20.68,20.68,0,0,0,14.77-1.57,20.92,20.92,0,0,0,5.87-4.4,32.63,32.63,0,0,0,4.41-6.54,70.64,70.64,0,0,0,3.54-7.46c1.1-2.71,2-5.5,3.24-8.17C67,66.86,73.45,57.64,82.23,50.78A65.86,65.86,0,0,1,104,39.51c1.27-.38,2.55-.72,3.84-1a2.13,2.13,0,0,0,1.41-2.71,57,57,0,0,0-14.9-21.32l-.13-.12a2.17,2.17,0,0,0-1.4-.54,2.76,2.76,0,0,0-1.52.66C80.8,21.73,73.08,33.86,73.08,33.86A132.45,132.45,0,0,1,85.87,10.69a2,2,0,0,0,.32-1.1,2.1,2.1,0,0,0-.91-1.74l-.21-.13A56.15,56.15,0,0,0,54.1.05H54a2.17,2.17,0,0,0-2.05,2.12c-.58,14.9,2.34,40.52,2.34,40.52S49.08,17.44,44,3.44A2.16,2.16,0,0,0,42,2a2,2,0,0,0-.42,0h-.05l-1.1.31A56.8,56.8,0,0,0,17.45,15.58c-1.12,1-2.18,2.16-3.21,3.31l-.07.08a2.11,2.11,0,0,0-.57,1.44,1.9,1.9,0,0,0,.63,1.51A139.9,139.9,0,0,1,33.65,40.1,115.65,115.65,0,0,0,10.48,27.31,3,3,0,0,0,9.38,27a2.11,2.11,0,0,0-1.75.93l0,0A56,56,0,0,0,.06,51.1c-.11,1.16-.19,2.35,1,3a2.12,2.12,0,0,0,1.52.2c.77-.16,1.54-.31,2.32-.43a52.84,52.84,0,0,1,26.89,2.6,32.75,32.75,0,0,1,13.69,9.36C52.32,74,56,88,48.09,96.62a17.2,17.2,0,0,1-14.29,5.45,19.55,19.55,0,0,1-7.56-2.52,31.78,31.78,0,0,1-6.12-4.2,38.74,38.74,0,0,1-9.36-13.21"/></g></g></svg>